# xmcd
#
# Track frame offsets: 
#        150
#        32565
#        53969
#        67964
#        82539
#        96811
#        111627
#        125722
#        151506
#        169114
#        189525
#        208452
#        233293
#        253658
#
# Disc length: 3631 seconds
#
# Revision: 0
# Processed by: cddbd v1.5.2PL0 Copyright (c) Steve Scherf et al.
# Submitted via: ExactAudioCopyFreeDBPlugin 1.0
#
DISCID=b30e2d0e
DTITLE=Peter Driessen - Sixtified
DYEAR=2011
DGENRE=Blues
TTITLE0=She Took Her Golden Whiskey Neat
TTITLE1=Peppermill
TTITLE2=Slow Walker
TTITLE3=Sure She Gonna Do It Again
TTITLE4=Forget Me, Baby
TTITLE5=I Know My Baby
TTITLE6=I Truly Ain't A Bad Boy
TTITLE7=Old Boys - Young Boys
TTITLE8=Anna
TTITLE9=Ain't Changing My Ways
TTITLE10=I Live A Life Of Freedom
TTITLE11=The Weight Of Pain
TTITLE12=The Perfect Absentee
TTITLE13=Rush Hour
EXTD=
EXTT0=
EXTT1=
EXTT2=
EXTT3=
EXTT4=
EXTT5=
EXTT6=
EXTT7=
EXTT8=
EXTT9=
EXTT10=
EXTT11=
EXTT12=
EXTT13=
PLAYORDER=
